<svg xmlns="http://www.w3.org/2000/svg" width="289" height="273" viewBox="0 0 289 273">
  <g id="circles1" transform="translate(-1457 -1768)" opacity="0.2">
    <circle id="Ellipse_2" data-name="Ellipse 2" cx="22.5" cy="22.5" r="22.5" transform="translate(1457 1768)" fill="#9aaad4"/>
    <circle id="Ellipse_3" data-name="Ellipse 3" cx="22.5" cy="22.5" r="22.5" transform="translate(1579 1882)" fill="#9aaad4"/>
    <circle id="Ellipse_4" data-name="Ellipse 4" cx="22.5" cy="22.5" r="22.5" transform="translate(1518 1882)" fill="#9aaad4"/>
    <circle id="Ellipse_5" data-name="Ellipse 5" cx="22.5" cy="22.5" r="22.5" transform="translate(1457 1882)" fill="#9aaad4"/>
    <circle id="Ellipse_6" data-name="Ellipse 6" cx="22.5" cy="22.5" r="22.5" transform="translate(1701 1825)" fill="#9aaad4"/>
    <circle id="Ellipse_7" data-name="Ellipse 7" cx="22.5" cy="22.5" r="22.5" transform="translate(1640 1825)" fill="#9aaad4"/>
    <circle id="Ellipse_8" data-name="Ellipse 8" cx="22.5" cy="22.5" r="22.5" transform="translate(1579 1825)" fill="#9aaad4"/>
    <circle id="Ellipse_9" data-name="Ellipse 9" cx="22.5" cy="22.5" r="22.5" transform="translate(1518 1825)" fill="#9aaad4"/>
    <circle id="Ellipse_10" data-name="Ellipse 10" cx="22.5" cy="22.5" r="22.5" transform="translate(1457 1825)" fill="#9aaad4"/>
    <circle id="Ellipse_11" data-name="Ellipse 11" cx="22.5" cy="22.5" r="22.5" transform="translate(1697 1768)" fill="#9aaad4"/>
    <circle id="Ellipse_12" data-name="Ellipse 12" cx="22.5" cy="22.5" r="22.5" transform="translate(1637 1768)" fill="#9aaad4"/>
    <circle id="Ellipse_13" data-name="Ellipse 13" cx="22.5" cy="22.5" r="22.5" transform="translate(1577 1768)" fill="#9aaad4"/>
    <circle id="Ellipse_14" data-name="Ellipse 14" cx="22.5" cy="22.5" r="22.5" transform="translate(1517 1768)" fill="#9aaad4"/>
    <circle id="Ellipse_15" data-name="Ellipse 15" cx="22.5" cy="22.5" r="22.5" transform="translate(1701 1882)" fill="#9aaad4"/>
    <circle id="Ellipse_16" data-name="Ellipse 16" cx="22.5" cy="22.5" r="22.5" transform="translate(1640 1882)" fill="#9aaad4"/>
    <circle id="Ellipse_17" data-name="Ellipse 17" cx="22.5" cy="22.5" r="22.5" transform="translate(1579 1939)" fill="#9aaad4"/>
    <circle id="Ellipse_18" data-name="Ellipse 18" cx="22.5" cy="22.5" r="22.5" transform="translate(1518 1939)" fill="#9aaad4"/>
    <circle id="Ellipse_19" data-name="Ellipse 19" cx="22.5" cy="22.5" r="22.5" transform="translate(1457 1939)" fill="#9aaad4"/>
    <circle id="Ellipse_20" data-name="Ellipse 20" cx="22.5" cy="22.5" r="22.5" transform="translate(1701 1939)" fill="#9aaad4"/>
    <circle id="Ellipse_21" data-name="Ellipse 21" cx="22.5" cy="22.5" r="22.5" transform="translate(1640 1939)" fill="#9aaad4"/>
    <circle id="Ellipse_22" data-name="Ellipse 22" cx="22.5" cy="22.5" r="22.5" transform="translate(1579 1996)" fill="#9aaad4"/>
    <circle id="Ellipse_23" data-name="Ellipse 23" cx="22.5" cy="22.5" r="22.5" transform="translate(1518 1996)" fill="#9aaad4"/>
    <circle id="Ellipse_24" data-name="Ellipse 24" cx="22.5" cy="22.5" r="22.5" transform="translate(1457 1996)" fill="#9aaad4"/>
    <circle id="Ellipse_25" data-name="Ellipse 25" cx="22.5" cy="22.5" r="22.5" transform="translate(1701 1996)" fill="#9aaad4"/>
    <circle id="Ellipse_26" data-name="Ellipse 26" cx="22.5" cy="22.5" r="22.5" transform="translate(1640 1996)" fill="#9aaad4"/>
  </g>
</svg>
