<svg xmlns="http://www.w3.org/2000/svg" width="366" height="159" viewBox="0 0 366 159">
  <g id="circls2" transform="translate(-169 -3750)" opacity="0.2">
    <circle id="Ellipse_27" data-name="Ellipse 27" cx="22.5" cy="22.5" r="22.5" transform="translate(291 3750)" fill="#99a5d6"/>
    <circle id="Ellipse_28" data-name="Ellipse 28" cx="22.5" cy="22.5" r="22.5" transform="translate(230 3750)" fill="#99a5d6"/>
    <circle id="Ellipse_29" data-name="Ellipse 29" cx="22.5" cy="22.5" r="22.5" transform="translate(169 3750)" fill="#99a5d6"/>
    <circle id="Ellipse_30" data-name="Ellipse 30" cx="22.5" cy="22.5" r="22.5" transform="translate(413 3750)" fill="#99a5d6"/>
    <circle id="Ellipse_31" data-name="Ellipse 31" cx="22.5" cy="22.5" r="22.5" transform="translate(352 3750)" fill="#99a5d6"/>
    <circle id="Ellipse_32" data-name="Ellipse 32" cx="22.5" cy="22.5" r="22.5" transform="translate(339 3807)" fill="#99a5d6"/>
    <circle id="Ellipse_33" data-name="Ellipse 33" cx="22.5" cy="22.5" r="22.5" transform="translate(278 3807)" fill="#99a5d6"/>
    <circle id="Ellipse_34" data-name="Ellipse 34" cx="22.5" cy="22.5" r="22.5" transform="translate(217 3807)" fill="#99a5d6"/>
    <circle id="Ellipse_35" data-name="Ellipse 35" cx="22.5" cy="22.5" r="22.5" transform="translate(461 3807)" fill="#99a5d6"/>
    <circle id="Ellipse_36" data-name="Ellipse 36" cx="22.5" cy="22.5" r="22.5" transform="translate(400 3807)" fill="#99a5d6"/>
    <circle id="Ellipse_37" data-name="Ellipse 37" cx="22.5" cy="22.5" r="22.5" transform="translate(368 3864)" fill="#99a5d6"/>
    <circle id="Ellipse_38" data-name="Ellipse 38" cx="22.5" cy="22.5" r="22.5" transform="translate(307 3864)" fill="#99a5d6"/>
    <circle id="Ellipse_39" data-name="Ellipse 39" cx="22.5" cy="22.5" r="22.5" transform="translate(246 3864)" fill="#99a5d6"/>
    <circle id="Ellipse_40" data-name="Ellipse 40" cx="22.5" cy="22.5" r="22.5" transform="translate(490 3864)" fill="#99a5d6"/>
    <circle id="Ellipse_41" data-name="Ellipse 41" cx="22.5" cy="22.5" r="22.5" transform="translate(429 3864)" fill="#99a5d6"/>
  </g>
</svg>
