<svg xmlns="http://www.w3.org/2000/svg" width="558.484" height="353.385" viewBox="0 0 558.484 353.385">
  <g id="undraw_proud_coder_re_exuy" transform="translate(-0.929 0.008)">
    <path id="Path_1" data-name="Path 1" d="M525.006,296.45a2.988,2.988,0,0,1-3.368.982,4.552,4.552,0,0,1-.53-.193,22.509,22.509,0,0,0-.287-6.238,16.68,16.68,0,0,1-1.28,5.13,6.957,6.957,0,0,1-1.374-1.962,17.509,17.509,0,0,1-1.252-4.721c-.94-5.534-1.868-11.292-.334-16.7,2.248-7.9,9.336-13.58,12.3-21.246l1.459-1.309c2.5,4.252,2.607,9.535,1.589,14.356s-3.052,9.364-4.665,14.023-2.821,9.614-2.073,14.488C525.36,294.207,525.622,295.469,525.006,296.45Z" transform="translate(-312.645 -240.644)" fill="#2f2e41"/>
    <path id="Path_2" data-name="Path 2" d="M227.8,157.1,218.3,200.573l41.517,13.522-6.1-57Z" transform="translate(-47.855 -34.441)" fill="#ffb6b6"/>
    <path id="Path_3" data-name="Path 3" d="M770.358,642.769h18.813V556.517a84.053,84.053,0,0,0-83.958-83.958H530.367a84.053,84.053,0,0,0-83.958,83.958v86.252h18.813V583.844a84.835,84.835,0,0,1,84.739-84.739H685.62a84.834,84.834,0,0,1,84.739,84.739Z" transform="translate(-297.441 -289.392)" fill="#faf9f8"/>
    <path id="Path_6" data-name="Path 6" d="M729.686,391.091H689.862a2.125,2.125,0,0,0-2.122,2.127v62.91h44.073v-62.91a2.126,2.126,0,0,0-2.127-2.127Zm-19.778,35.745a4.724,4.724,0,0,1-4.7-4.7v-7.256a4.7,4.7,0,0,1,9.405,0v7.256a4.724,4.724,0,0,1-4.7,4.7Z" transform="translate(-350.346 -271.532)" fill="#3f3d56"/>
    <path id="Path_7" data-name="Path 7" d="M776.578,265.347H606.346a5.526,5.526,0,0,0-5.517,5.517V385.738a5.523,5.523,0,0,0,5.517,5.517H776.578a5.523,5.523,0,0,0,5.517-5.517V270.864a5.526,5.526,0,0,0-5.517-5.517Z" transform="translate(-331.293 -243.966)" fill="#3f3d56"/>
    <path id="Path_8" data-name="Path 8" d="M776.277,270.451H608.888a2.957,2.957,0,0,0-2.951,2.957V385.434a2.956,2.956,0,0,0,2.951,2.951H776.277a2.956,2.956,0,0,0,2.951-2.951V273.407a2.957,2.957,0,0,0-2.95-2.957Z" transform="translate(-332.413 -245.085)" fill="#fffaf3"/>
    <path id="Path_9" data-name="Path 9" d="M687.565,471.812v6.07a1.189,1.189,0,0,0,1.187,1.187h41.973a1.193,1.193,0,0,0,1.187-1.187v-6.07Z" transform="translate(-350.307 -289.228)" fill="#3f3d56"/>
    <path id="Path_10" data-name="Path 10" d="M753.869,480.721H654.282a1.832,1.832,0,0,1-1.793-2.209l1.545-7.339a1.84,1.84,0,0,1,1.792-1.454h96.5a1.84,1.84,0,0,1,1.792,1.455l1.545,7.339a1.832,1.832,0,0,1-1.793,2.209Z" transform="translate(-342.609 -288.769)" fill="#3f3d56"/>
    <rect id="Rectangle_2" data-name="Rectangle 2" width="3.067" height="1.84" rx="0.488" transform="translate(313.925 182.271)" fill="#e6e6e6"/>
    <rect id="Rectangle_3" data-name="Rectangle 3" width="3.067" height="1.84" rx="0.488" transform="translate(320.059 182.271)" fill="#e6e6e6"/>
    <rect id="Rectangle_4" data-name="Rectangle 4" width="3.067" height="1.84" rx="0.488" transform="translate(326.194 182.271)" fill="#e6e6e6"/>
    <rect id="Rectangle_5" data-name="Rectangle 5" width="3.067" height="1.84" rx="0.488" transform="translate(332.328 182.271)" fill="#e6e6e6"/>
    <rect id="Rectangle_6" data-name="Rectangle 6" width="3.067" height="1.84" rx="0.488" transform="translate(338.462 182.271)" fill="#e6e6e6"/>
    <rect id="Rectangle_7" data-name="Rectangle 7" width="3.067" height="1.84" rx="0.488" transform="translate(344.597 182.271)" fill="#e6e6e6"/>
    <rect id="Rectangle_8" data-name="Rectangle 8" width="3.067" height="1.84" rx="0.488" transform="translate(350.731 182.271)" fill="#e6e6e6"/>
    <rect id="Rectangle_9" data-name="Rectangle 9" width="3.067" height="1.84" rx="0.488" transform="translate(356.866 182.271)" fill="#e6e6e6"/>
    <rect id="Rectangle_10" data-name="Rectangle 10" width="3.067" height="1.84" rx="0.488" transform="translate(363 182.271)" fill="#e6e6e6"/>
    <rect id="Rectangle_11" data-name="Rectangle 11" width="3.067" height="1.84" rx="0.488" transform="translate(369.134 182.271)" fill="#e6e6e6"/>
    <rect id="Rectangle_12" data-name="Rectangle 12" width="3.067" height="1.84" rx="0.488" transform="translate(375.269 182.271)" fill="#e6e6e6"/>
    <rect id="Rectangle_13" data-name="Rectangle 13" width="3.067" height="1.84" rx="0.488" transform="translate(381.403 182.271)" fill="#e6e6e6"/>
    <rect id="Rectangle_14" data-name="Rectangle 14" width="3.067" height="1.84" rx="0.488" transform="translate(387.538 182.271)" fill="#e6e6e6"/>
    <rect id="Rectangle_15" data-name="Rectangle 15" width="3.067" height="1.84" rx="0.488" transform="translate(393.672 182.271)" fill="#e6e6e6"/>
    <rect id="Rectangle_16" data-name="Rectangle 16" width="3.067" height="1.84" rx="0.488" transform="translate(399.806 182.271)" fill="#e6e6e6"/>
    <rect id="Rectangle_17" data-name="Rectangle 17" width="3.067" height="1.84" rx="0.488" transform="translate(405.941 182.271)" fill="#e6e6e6"/>
    <rect id="Rectangle_18" data-name="Rectangle 18" width="3.067" height="1.84" rx="0.488" transform="translate(313.852 185.338)" fill="#e6e6e6"/>
    <rect id="Rectangle_19" data-name="Rectangle 19" width="3.067" height="1.84" rx="0.488" transform="translate(319.987 185.338)" fill="#e6e6e6"/>
    <rect id="Rectangle_20" data-name="Rectangle 20" width="3.067" height="1.84" rx="0.488" transform="translate(326.121 185.338)" fill="#e6e6e6"/>
    <rect id="Rectangle_21" data-name="Rectangle 21" width="3.067" height="1.84" rx="0.488" transform="translate(332.255 185.338)" fill="#e6e6e6"/>
    <rect id="Rectangle_22" data-name="Rectangle 22" width="3.067" height="1.84" rx="0.488" transform="translate(338.39 185.338)" fill="#e6e6e6"/>
    <rect id="Rectangle_23" data-name="Rectangle 23" width="3.067" height="1.84" rx="0.488" transform="translate(344.524 185.338)" fill="#e6e6e6"/>
    <rect id="Rectangle_24" data-name="Rectangle 24" width="3.067" height="1.84" rx="0.488" transform="translate(350.659 185.338)" fill="#e6e6e6"/>
    <rect id="Rectangle_25" data-name="Rectangle 25" width="3.067" height="1.84" rx="0.488" transform="translate(356.793 185.338)" fill="#e6e6e6"/>
    <rect id="Rectangle_26" data-name="Rectangle 26" width="3.067" height="1.84" rx="0.488" transform="translate(362.927 185.338)" fill="#e6e6e6"/>
    <rect id="Rectangle_27" data-name="Rectangle 27" width="3.067" height="1.84" rx="0.488" transform="translate(369.062 185.338)" fill="#e6e6e6"/>
    <rect id="Rectangle_28" data-name="Rectangle 28" width="3.067" height="1.84" rx="0.488" transform="translate(375.196 185.338)" fill="#e6e6e6"/>
    <rect id="Rectangle_29" data-name="Rectangle 29" width="3.067" height="1.84" rx="0.488" transform="translate(381.331 185.338)" fill="#e6e6e6"/>
    <rect id="Rectangle_30" data-name="Rectangle 30" width="3.067" height="1.84" rx="0.488" transform="translate(387.465 185.338)" fill="#e6e6e6"/>
    <rect id="Rectangle_31" data-name="Rectangle 31" width="3.067" height="1.84" rx="0.488" transform="translate(393.599 185.338)" fill="#e6e6e6"/>
    <rect id="Rectangle_32" data-name="Rectangle 32" width="3.067" height="1.84" rx="0.488" transform="translate(399.734 185.338)" fill="#e6e6e6"/>
    <rect id="Rectangle_33" data-name="Rectangle 33" width="3.067" height="1.84" rx="0.488" transform="translate(405.868 185.338)" fill="#e6e6e6"/>
    <rect id="Rectangle_34" data-name="Rectangle 34" width="24.538" height="1.84" rx="0.488" transform="translate(343.297 189.019)" fill="#e6e6e6"/>
    <path id="Path_11" data-name="Path 11" d="M763.15,302.383v58.964a14.891,14.891,0,0,1-14.887,14.889h-73.8a14.9,14.9,0,0,1-13.673-8.974,14.044,14.044,0,0,1-.881-2.738,13.56,13.56,0,0,0,4.919.913h73.8a13.745,13.745,0,0,0,13.726-13.726V292.748a13.56,13.56,0,0,0-.914-4.919,14.043,14.043,0,0,1,2.741.882,14.9,14.9,0,0,1,8.971,13.671Z" transform="translate(-344.244 -248.895)" fill="#f2f2f2"/>
    <path id="Path_12" data-name="Path 12" d="M175.787,360.925l-7.32,4.532L146.9,338.95l10.8-6.688Z" transform="translate(-32.204 -72.841)" fill="#a66d59"/>
    <path id="Path_13" data-name="Path 13" d="M439,613.694l-5.888,2.628-3.533-5.09-.21,6.761-15.617,6.971a3.844,3.844,0,0,1-4.851-5.509l8.626-14.18-2.509-5.62,13.467-5.073Z" transform="translate(-289.095 -316.142)" fill="#2f2e41"/>
    <path id="Path_14" data-name="Path 14" d="M402.8,572.678l12.363-12.945c-9.185-24.489-9.919-39.668-22.652-69.286,30.211,6.676,51.81,6.271,76.794.285,8.458-1.995,30.283-20.209,28.489-29.549q-.126-.655-.3-1.3c-2.682-9.88-.793-25.009-6.6-35.973-10.74-4.375-27.056,10.4-39.82,19.4-6.155,4.342-1.649,10.259-6.246,11.811l-17.621,6.18-43.234-7.544a15.123,15.123,0,0,0-11.948,3.216,17.6,17.6,0,0,0-6.3,11.428q-.11.761-.159,1.53c1.989,11.9,4.063,23.483,6.3,34.481.721,3.55-.5,10.356,2.214,10.457s1.618,7.14,2.462,10.582C381.73,546.642,385.016,556.894,402.8,572.678Z" transform="translate(-279.717 -289.693)" fill="#2f2e41"/>
    <path id="Path_15" data-name="Path 15" d="M125.188,419.653l-7.626-3.98,12.065-31.962,11.255,5.875Z" transform="translate(-25.772 -84.119)" fill="#a66d59"/>
    <path id="Path_16" data-name="Path 16" d="M381.316,599.018l12.228,8.656c14.987-22.284,24.718-52.061,31.964-85.38,28.216-12.655,52.906-27.134,70.111-46.554a17.128,17.128,0,0,0-.944-23.356q-.452-.435-.934-.834c-7.452-6.1-24-2.591-34.582-7.693l-18.9,26.892,2.172,6.263-6.574,3.29-5.551,2.778-6.354,3.18-20.83,10.425a16.318,16.318,0,0,0-8.042,9.57,16.863,16.863,0,0,0,.945,12.609q.316.657.685,1.284l-7.736,39.624s2.129,6.9-1.221,6.253-1.524,7.807-1.524,7.807Z" transform="translate(-283.171 -287.583)" fill="#2f2e41"/>
    <path id="Path_17" data-name="Path 17" d="M369.567,682.541l-5.716-2.983,1.8-5.93-5.43,4.033-15.161-7.913a3.844,3.844,0,0,1,1.306-7.223l16.472-2.043,2.848-5.456,12.338,7.407Z" transform="translate(-274.769 -329.392)" fill="#2f2e41"/>
    <path id="Path_18" data-name="Path 18" d="M586.029,469.613l-8.919-21.554-7.027,3.9,4.244,21.926a7.809,7.809,0,1,0,11.7-4.276Z" transform="translate(-320.259 -291.783)" fill="#b37966"/>
    <path id="Path_19" data-name="Path 19" d="M397.371,253.112l13.571,18.973,5.96-5.395L407.8,246.3a7.809,7.809,0,1,0-10.429,6.816Z" transform="translate(-285.557 -237.961)" fill="#b37966"/>
    <path id="Path_20" data-name="Path 20" d="M461.548,364.844c-2.4,3.325-7.179,20.333-4.472,25.077,6.706,11.763,32.552,11.943,44.895,7.432,2.973-1.087,13.2-4.675,6.209-9.651s.81.593.995-2.646c.123-2.165-1.756-6.915.2-6.712s3.086-4.855-1.184-6.144a7.6,7.6,0,0,1-5.466-6.268c-.408-13.349,4.66-27.286,4.66-27.286l20.689,47.175s-.153,8.162,2.486,5.667,2.446,5.578,2.446,5.578,3.923,2.442,1.667,3.8,2.429,5.538,2.429,5.538l10.931-.7s-.171-7.243-2.038-8.845a3.929,3.929,0,0,1-.95-4.122s-3.848-3.193-1.6-6.953-16.358-71.013-16.358-71.013c-1.52-6.6-7.06-11.877-14.34-13.665l-11.806-2.9-2.1-7.42H482.224l-2.9,4.875-26.546-2.089S426.514,272.26,427.8,270.6s-2.789-5.562-2.789-5.562-3.478-1.015-1.515-1.557-1.747-1.8-1.747-1.8-3.435-.805-1.815-1.865-5.407-1.757-5.407-1.757l-9.117,6.636,1.843,2.787s-1.124,3.8.343,2.41,1.742,2.635,1.742,2.635a7.666,7.666,0,0,0,5.189,5.73c4.441,1.327,7.808,13.929,7.808,13.929l37.477,27.859c-5.708,5.844-4.349,11.956.707,18.207Z" transform="translate(-288.452 -242.369)" fill="#F0EBE6"/>
    <circle id="Ellipse_1" data-name="Ellipse 1" cx="18.001" cy="18.001" r="18.001" transform="translate(183.707 10.857)" fill="#b27769"/>
    <path id="Path_21" data-name="Path 21" d="M521.026,262.32c-.461.133-7.222,1.015-10.15,1.562-2.873.539-3.373-3.123-5.723-2.436a.1.1,0,0,0-.008-.047,22.135,22.135,0,0,0-1.85-5.6,16.534,16.534,0,0,1,.133,5.153.773.773,0,0,1-.016.133c-.008.078-.023.148-.031.226-2.483-1.093-4.06-.117-5.778.226-1.921.383-3.42,1.226-2.342,7.808,2.21,13.539,13.7,18.372,11.712,27.327-.39,1.772-1.374,3.99-2.608,4.544a22.132,22.132,0,0,0-1.851-5.6,16.536,16.536,0,0,1,.133,5.153c-1.913-2.069-3.295-9.3-9.729-15.03-1.585-1.405-9.525-9.744-10.478-11.712a25.092,25.092,0,0,1,.422,4.771,22.972,22.972,0,0,1-.219,3.2.9.9,0,0,1-.023.2c-.008.125-.031.234-.047.351-.016.133-.039.258-.062.39-2.6-.375-4.9-.828-5.989-1.89-5.278-5.137,1.163-15.147,4.685-24.2,5.036-12.969,19.66-14.694,21.081-14.835,6.262-.632,16.841.71,20.3,7.808C525.008,254.8,523.462,261.617,521.026,262.32Z" transform="translate(-303.604 -238.822)" fill="#2f2e41"/>
    <path id="Path_22" data-name="Path 22" d="M482.849,265.354l13.04-20.285a20,20,0,0,0-10.3-2.7,12.82,12.82,0,0,0-9.455,4.459c-2.663,3.31-3.12,7.989-2.122,12.118.345,1.426,6.907-3.592,5.345-1.25-1.282,1.834-3.378,9.542-3.9,11.712-.846,3.491-3.173,7.076-1.1,10.01,2.451,3.47,6.824,5.2,11.069,5.37s8.423-1,12.457-2.334Z" transform="translate(-303.384 -238.929)" fill="#2f2e41"/>
    <path id="Path_23" data-name="Path 23" d="M491.667,264.892a.781.781,0,0,1-.213-1.532,9.459,9.459,0,0,0,.053-2.908c-.254-4.313-.679-11.531,6.329-16.4a.781.781,0,0,1,.891,1.282c-6.289,4.373-5.912,10.787-5.661,15.03.143,2.426.246,4.179-1.226,4.512A.775.775,0,0,1,491.667,264.892Z" transform="translate(-307.191 -239.267)" fill="#F0EBE6"/>
    <path id="Path_24" data-name="Path 24" d="M815.028,688.722h0Z" transform="translate(-255.615 -336.779)" fill="#ccc"/>
    <path id="Path_25" data-name="Path 25" d="M694.5,332.147H682.686a1.181,1.181,0,0,1,0-2.363H694.5a1.181,1.181,0,0,1,0,2.363Z" transform="translate(-348.979 -258.093)" fill="#F0EBE6"/>
    <path id="Path_26" data-name="Path 26" d="M721.738,332.147H709.923a1.181,1.181,0,0,1,0-2.363h11.815a1.181,1.181,0,1,1,0,2.363Z" transform="translate(-354.95 -258.093)" fill="#F0EBE6"/>
    <path id="Path_27" data-name="Path 27" d="M735.357,344.253H723.542a1.181,1.181,0,0,1,0-2.363h11.815a1.181,1.181,0,0,1,0,2.363Z" transform="translate(-357.935 -260.746)" fill="#F0EBE6"/>
    <path id="Path_28" data-name="Path 28" d="M705.2,344.253H682.686a1.181,1.181,0,0,1,0-2.363H705.2a1.181,1.181,0,0,1,0,2.363Z" transform="translate(-348.979 -260.746)" fill="#F0EBE6"/>
    <path id="Path_29" data-name="Path 29" d="M759.674,332.147H737.161a1.181,1.181,0,1,1,0-2.363h22.513a1.181,1.181,0,0,1,0,2.363Z" transform="translate(-360.921 -258.093)" fill="#F0EBE6"/>
    <path id="Path_30" data-name="Path 30" d="M701.857,309.223H679.343a1.181,1.181,0,0,1,0-2.363h22.513a1.181,1.181,0,0,1,0,2.363Z" transform="translate(-348.246 -253.067)" fill="#F0EBE6"/>
    <path id="Path_31" data-name="Path 31" d="M710.583,314.095a1.058,1.058,0,0,1-.65-1.893l5.765-4.481a2.119,2.119,0,0,0,.256-3.11l-4.84-5.24a1.058,1.058,0,0,1,1.554-1.436l7.187,7.78a1.058,1.058,0,0,1-.128,1.553l-8.5,6.6a1.055,1.055,0,0,1-.649.223Z" transform="translate(-355.121 -251.036)" fill="#F0EBE6"/>
    <path id="Path_32" data-name="Path 32" d="M675.534,314.095a1.058,1.058,0,0,0,.65-1.893l-5.765-4.481a2.119,2.119,0,0,1-.256-3.11l4.84-5.24a1.058,1.058,0,0,0-1.554-1.436l-7.187,7.78a1.058,1.058,0,0,0,.128,1.553l8.5,6.6a1.055,1.055,0,0,0,.649.223Z" transform="translate(-345.576 -251.036)" fill="#F0EBE6"/>
    <path id="Path_33" data-name="Path 33" d="M716.763,370.2H694.249a1.181,1.181,0,1,1,0-2.363h22.513a1.181,1.181,0,0,1,0,2.363Z" transform="translate(-351.513 -266.435)" fill="#F0EBE6"/>
    <path id="Path_34" data-name="Path 34" d="M728.2,373.719a1.058,1.058,0,0,1-.65-1.893l5.765-4.481a2.119,2.119,0,0,0,.256-3.11L728.73,359a1.058,1.058,0,1,1,1.554-1.436l7.187,7.78a1.058,1.058,0,0,1-.128,1.553l-8.5,6.6a1.055,1.055,0,0,1-.649.223Z" transform="translate(-358.983 -264.107)" fill="#F0EBE6"/>
    <path id="Path_35" data-name="Path 35" d="M675.534,373.719a1.058,1.058,0,0,0,.65-1.893l-5.765-4.481a2.119,2.119,0,0,1-.256-3.11L675,359a1.058,1.058,0,0,0-1.554-1.436l-7.187,7.78a1.058,1.058,0,0,0,.128,1.553l8.5,6.6A1.055,1.055,0,0,0,675.534,373.719Z" transform="translate(-345.576 -264.107)" fill="#F0EBE6"/>
    <path id="Path_36" data-name="Path 36" d="M680.761,370.874l4.732-10.826a1.181,1.181,0,0,1,2.165.946l-4.732,10.826a1.181,1.181,0,1,1-2.165-.946Z" transform="translate(-348.794 -264.572)" fill="#F0EBE6"/>
  </g>
</svg>
