<svg xmlns="http://www.w3.org/2000/svg" width="1920" height="279.563" viewBox="0 0 1920 279.563">
  <path id="Path_37" data-name="Path 37" d="M0,0H1920V148.578h-39.958v50.708H1848.7V123.63h-35.625V227.792h-45.964V177.573h-38.677v71.29h-40.927V211.221h-37.453V129.552H1613.01v54.266H1568.5V90.146h-37.375V227.792H1491.4V148.578H1445.4v71.9h-36.4V183.818h-41.443v65.045h-31.833V199.286h-44.552V168.005h-37.7V123.63h-37.656v75.656h-40.13V156.516h-43.854v92.347h-40.016V211.221h-37.7v68.342h-36.031V232.9H977.6V177.573h-45.74V90.146H894.708v58.432H859.063v44.5H819.495v62.281H785.667V148.578H745.078v71.9H702.859v59.089H670.2V168.005h-40.12v64.9H606.87V148.578H576.2v44.5H547.9v62.281h-34.63V211.221h-28.2V168.005h-44.1v43.215H403.4V129.552H370.573v48.021h-34.7v50.219h-40.1v51.771H259.745V193.078h-36.24V244H190.4V108.406H154.515v75.411h-49v36.656H72.2V168.005H31.365V244H0Z" fill="#fffaf4"/>
</svg>
